<?xml version="1.0" standalone="no"?>
<!DOCTYPE svg PUBLIC "-//W3C//DTD SVG 20010904//EN"
 "http://www.w3.org/TR/2001/REC-SVG-20010904/DTD/svg10.dtd">
<svg version="1.0" xmlns="http://www.w3.org/2000/svg"
 width="1344.000000pt" height="768.000000pt" viewBox="0 0 1344.000000 768.000000"
 preserveAspectRatio="xMidYMid meet">

<g transform="translate(0.000000,768.000000) scale(0.100000,-0.100000)"
fill="#000000" stroke="none">
<path d="M0 3840 l0 -3840 6720 0 6720 0 0 3840 0 3840 -6720 0 -6720 0 0
-3840z m7114 2710 c8 -8 -268 -858 -296 -912 -6 -13 -21 -18 -47 -18 -68 0
-69 11 -6 192 31 90 97 280 145 423 115 339 109 323 128 328 21 6 64 -2 76
-13z m-1746 -152 l-3 -23 -265 -2 c-146 -2 -271 1 -279 6 -8 5 -11 16 -8 25 6
14 39 16 282 16 l276 0 -3 -22z m-598 -9 c-14 -25 -63 -23 -68 4 -3 14 4 17
38 17 38 0 40 -1 30 -21z m730 6 c0 -16 -45 -21 -54 -6 -8 12 4 21 31 21 14 0
23 -6 23 -15z m-850 -5 c0 -6 -53 -10 -140 -10 -87 0 -140 4 -140 10 0 6 53
10 140 10 87 0 140 -4 140 -10z m3530 0 c0 -6 -68 -10 -185 -10 -117 0 -185 4
-185 10 0 6 68 10 185 10 117 0 185 -4 185 -10z m110 -5 c0 -9 -9 -15 -25 -15
-16 0 -25 6 -25 15 0 9 9 15 25 15 16 0 25 -6 25 -15z m-1706 -31 c11 -4 16
-19 16 -48 l0 -41 -131 -80 c-177 -109 -168 -102 -144 -121 11 -8 77 -50 148
-92 l127 -76 0 -43 c0 -76 -22 -71 -232 58 -101 62 -191 119 -201 128 -12 9
-17 26 -15 44 3 27 19 40 138 115 269 169 266 167 294 156z m901 -114 c195
-124 222 -150 199 -188 -6 -9 -67 -52 -135 -95 -239 -150 -257 -160 -284 -153
-22 6 -25 12 -25 49 l0 43 151 90 c175 104 178 81 -20 199 l-131 79 0 42 c0
41 8 52 40 53 9 1 101 -53 205 -119z m1253 -162 c8 -8 52 -11 138 -9 116 2
125 1 122 -16 -3 -16 -14 -17 -125 -14 -102 2 -125 0 -139 -13 -21 -22 -50
-20 -90 5 l-34 21 22 19 c26 21 88 25 106 7z m-3948 -113 c0 -13 -48 -15 -374
-15 -206 0 -377 4 -380 9 -3 4 -3 11 1 15 3 3 174 6 380 6 325 0 373 -2 373
-15z m4790 -75 l0 -30 -547 1 c-302 1 -654 4 -783 8 -211 5 -235 8 -238 23 -4
23 14 23 871 26 l697 2 0 -30z m-3900 -20 c34 0 41 -3 36 -16 -3 -9 -6 -24 -6
-33 0 -10 -11 -23 -25 -29 -29 -14 -33 -32 -7 -32 11 0 27 -9 38 -21 18 -20
18 -22 1 -34 -10 -7 -17 -25 -17 -45 0 -19 -8 -42 -17 -53 -17 -18 -17 -19 0
-32 24 -17 22 -26 -20 -70 l-38 -40 30 -5 c21 -4 30 -11 30 -25 0 -40 -67 -60
-489 -145 -369 -74 -411 -80 -422 -66 -6 9 -25 16 -43 16 -17 0 -31 3 -31 8 1
30 15 52 39 57 35 8 67 33 55 43 -5 5 -28 15 -52 22 -29 9 -39 17 -32 24 5 5
10 25 10 43 0 18 4 33 9 33 19 0 23 41 7 59 -23 26 -20 41 17 79 l32 33 -27
24 c-36 31 -35 51 1 70 33 16 339 78 616 124 232 38 238 39 251 24 6 -7 30
-13 54 -13z m3831 -388 c-5 -10 -45 -58 -88 -106 -143 -162 -155 -176 -146
-176 4 1 33 23 63 51 80 74 170 131 195 125 14 -4 46 13 108 59 48 36 87 63
87 60 0 -2 -22 -31 -50 -64 -54 -65 -60 -81 -32 -82 9 0 24 -2 33 -4 9 -1 38
8 65 21 27 13 51 24 53 24 2 0 -17 -22 -43 -50 -25 -27 -46 -51 -46 -54 0 -3
11 -3 25 0 30 5 30 4 4 -40 -25 -42 -13 -47 22 -10 13 15 47 41 74 59 28 18
57 40 64 49 7 9 18 16 23 16 14 0 -68 -100 -209 -255 -70 -77 -139 -152 -153
-166 -14 -13 -84 -88 -156 -164 -361 -384 -506 -541 -510 -551 -3 -6 13 -42
34 -80 86 -151 463 -835 509 -924 27 -52 48 -102 46 -111 -2 -9 7 -38 21 -65
31 -62 50 -112 38 -99 -5 6 -50 73 -100 149 -109 165 -131 165 -52 -1 51 -106
80 -176 80 -195 0 -5 -24 18 -52 51 -29 34 -55 56 -56 51 -2 -6 47 -114 109
-240 61 -127 110 -232 108 -234 -7 -8 -51 33 -45 42 7 12 -162 257 -171 248
-2 -1 3 -22 11 -44 9 -23 13 -42 11 -42 -2 0 -38 46 -79 101 -71 95 -90 108
-66 43 21 -54 -18 -5 -91 115 -38 64 -77 125 -85 135 -28 39 -22 8 17 -73 21
-46 39 -89 39 -97 0 -7 29 -70 65 -140 36 -70 64 -128 62 -130 -1 -2 -20 24
-42 57 -21 32 -42 59 -46 59 -5 0 -23 21 -41 48 -18 26 -43 56 -55 68 -37 34
-366 576 -523 862 -13 23 -26 42 -29 41 -7 0 -151 -167 -531 -609 -58 -67
-131 -143 -162 -168 -32 -25 -58 -49 -58 -53 0 -5 -5 -9 -11 -9 -20 0 -2 53
40 120 51 81 55 89 46 98 -4 4 -36 -24 -72 -62 -36 -38 -68 -64 -72 -60 -21
31 -69 47 -152 52 l-88 5 26 46 c14 25 37 61 51 79 13 18 22 35 21 37 -2 2
-26 -17 -54 -42 -78 -71 -147 -124 -153 -118 -3 3 4 16 17 28 12 13 19 30 16
39 -6 16 80 129 291 383 231 277 344 407 556 641 l38 41 -101 184 c-152 276
-339 627 -365 687 l-24 53 24 26 c28 30 43 25 80 -25 l24 -33 -2 73 -1 73 29
3 c17 2 30 11 33 22 4 14 16 18 71 19 55 1 69 5 81 21 7 11 17 20 21 20 4 0
22 -22 40 -50 18 -27 34 -50 37 -50 2 0 1 5 -2 10 -9 15 17 70 33 70 23 0 52
-42 121 -175 37 -72 113 -220 170 -329 l104 -199 46 49 c516 552 633 668 661
659 12 -4 44 16 96 59 44 36 80 66 82 66 1 0 -2 -8 -7 -18z m-5274 -105 c4 -5
-3 -17 -16 -28 -21 -17 -41 -19 -200 -19 -201 0 -335 10 -286 21 l30 7 -27 1
c-16 0 -28 5 -28 11 0 5 37 11 83 13 138 7 435 2 444 -6z m110 -13 c-3 -3 -12
-4 -19 -1 -8 3 -5 6 6 6 11 1 17 -2 13 -5z m2646 -98 c202 -52 330 -143 444
-319 35 -53 66 -112 70 -130 l6 -32 -37 34 c-20 19 -36 31 -36 25 0 -5 14 -63
31 -129 22 -83 33 -154 36 -227 6 -111 15 -136 28 -70 10 55 33 104 45 97 13
-8 13 -125 -1 -201 -113 -629 -627 -1127 -1164 -1126 -165 0 -321 45 -453 128
-88 57 -191 167 -231 249 -19 39 -40 73 -47 78 -19 11 -53 110 -76 222 -65
320 92 713 421 1057 161 169 314 272 482 327 98 32 143 39 270 40 93 1 136 -4
212 -23z m-1653 -230 c0 -54 14 -67 28 -26 19 52 122 96 122 52 0 -10 -32
-173 -71 -362 -39 -190 -90 -442 -114 -560 -134 -655 -210 -940 -297 -1114
-100 -200 -242 -351 -409 -435 -128 -63 -209 -85 -319 -85 -106 0 -173 15
-275 65 -152 73 -251 174 -325 334 -47 100 -53 125 -33 125 11 0 13 5 8 18
-28 66 -42 160 -33 232 12 102 13 104 27 35 14 -70 42 -155 51 -155 4 0 5 35
3 78 -2 42 2 113 10 157 l14 80 7 -57 c5 -32 12 -58 16 -58 5 0 17 11 28 25
12 15 22 20 24 14 3 -9 10 -9 28 1 20 11 25 10 37 -6 7 -10 13 -24 13 -31 0
-7 4 -13 9 -13 5 0 14 -12 19 -27 9 -25 11 -21 12 32 1 33 5 69 9 80 7 18 10
17 25 -13 9 -18 25 -41 35 -51 10 -10 29 -49 41 -87 46 -142 87 -204 155 -235
102 -47 217 7 311 147 99 149 162 382 315 1179 44 231 88 460 98 509 18 93 33
113 72 101 20 -7 21 -12 15 -64 -16 -144 -17 -156 -8 -141 5 8 15 40 22 70 7
30 21 83 31 116 19 60 20 61 61 68 24 4 79 15 123 25 118 28 115 28 115 -23z
m-2036 -153 c-14 -38 -30 -72 -36 -78 -12 -11 -13 -13 22 83 12 34 27 62 31
62 5 0 -3 -30 -17 -67z m126 64 c0 -12 -54 -134 -62 -142 -12 -11 -10 -3 25
88 12 31 25 57 29 57 5 0 8 -1 8 -3z m188 -9 c17 -17 15 -33 -3 -18 -25 21
-45 4 -45 -38 0 -45 17 -67 37 -50 16 13 31 2 16 -13 -6 -6 -21 -9 -34 -7 -21
3 -24 9 -27 56 -4 70 23 103 56 70z m212 -58 c0 -67 -1 -70 -24 -70 -13 0 -29
6 -35 14 -19 23 -9 70 17 81 12 5 22 18 22 27 0 10 5 18 10 18 6 0 10 -30 10
-70z m-116 24 c11 -4 16 -19 16 -44 0 -30 -5 -40 -20 -45 -28 -9 -50 11 -50
44 0 40 21 58 54 45z m214 -21 c3 -19 -1 -23 -23 -23 -20 0 -26 -4 -23 -17 3
-12 12 -17 26 -16 12 2 22 -2 22 -7 0 -14 -44 -12 -58 2 -16 16 -15 61 0 76
20 20 53 10 56 -15z m5977 -13 c3 -5 -5 -15 -19 -22 -23 -10 -26 -18 -26 -58
0 -25 -6 -55 -14 -65 -12 -17 -12 -22 0 -39 8 -11 14 -42 14 -68 0 -41 3 -48
20 -48 11 0 20 -7 20 -15 0 -17 -9 -19 -44 -5 -22 8 -25 16 -28 67 -3 52 -6
59 -31 71 -23 11 -26 16 -16 28 6 8 17 14 25 14 8 0 15 18 19 48 3 26 7 54 8
62 1 8 13 20 27 27 30 15 37 16 45 3z m-2357 -180 c29 -46 22 -154 -8 -124
-13 13 -26 144 -14 144 5 0 15 -9 22 -20z m-4218 7 c0 -2 -12 -32 -26 -68 -24
-60 -44 -94 -44 -75 0 18 54 146 62 146 4 0 8 -1 8 -3z m98 -5 c-1 -4 -16 -40
-33 -81 -16 -40 -31 -69 -33 -63 -5 15 50 152 61 152 5 0 7 -3 5 -8z m189 -4
c12 -19 12 -101 1 -115 -6 -7 -21 -13 -34 -13 -23 0 -24 3 -24 70 0 68 1 70
24 70 14 0 28 -6 33 -12z m193 2 c0 -5 -4 -10 -10 -10 -5 0 -10 5 -10 10 0 6
5 10 10 10 6 0 10 -4 10 -10z m90 3 c5 -69 12 -109 20 -111 22 -8 8 -22 -20
-22 -16 0 -30 5 -30 10 0 6 5 10 10 10 6 0 10 23 10 50 0 28 -4 50 -10 50 -5
0 -10 5 -10 10 0 11 30 14 30 3z m130 -62 c0 -67 0 -68 -26 -67 -15 1 -31 8
-37 17 -15 24 0 68 28 79 14 5 25 16 25 25 0 8 2 15 5 15 3 0 5 -31 5 -69z
m-350 -11 c0 -29 4 -40 15 -40 11 0 15 11 15 40 0 22 5 40 10 40 6 0 10 -22
10 -48 0 -42 -3 -48 -22 -49 -12 -1 -28 3 -35 9 -15 12 -18 88 -3 88 6 0 10
-18 10 -40z m128 -3 c2 -20 7 -37 13 -37 5 0 9 -4 9 -10 0 -5 -17 -10 -37 -10
-34 1 -36 2 -20 14 20 15 23 72 5 80 -7 3 -4 5 7 3 15 -2 21 -11 23 -40z
m-504 -234 c-24 -64 -44 -99 -44 -78 0 19 53 145 61 145 5 0 -3 -30 -17 -67z
m126 63 c0 -2 -11 -28 -23 -57 -13 -30 -27 -63 -31 -73 -3 -10 -9 -17 -11 -14
-7 7 48 148 57 148 5 0 8 -2 8 -4z m194 -18 c8 -13 8 -23 -2 -38 -9 -15 -10
-26 -2 -41 6 -11 9 -25 7 -32 -3 -7 -11 3 -18 21 -16 38 -29 42 -29 8 0 -14
-4 -28 -10 -31 -6 -4 -10 20 -10 65 0 71 0 71 26 68 15 -2 32 -11 38 -20z
m494 -18 c15 -1 15 -2 0 -11 -23 -13 -25 -69 -3 -69 8 0 15 -4 15 -10 0 -14
-23 -13 -38 2 -7 7 -12 24 -12 39 0 15 -4 30 -10 34 -5 3 -2 14 8 26 14 16 18
17 20 4 2 -8 11 -15 20 -15z m-400 -12 c20 -20 14 -38 -13 -38 -35 0 -32 -28
3 -32 24 -4 25 -5 8 -13 -37 -17 -64 20 -52 71 7 26 34 32 54 12z m107 -38 c0
-40 -2 -45 -22 -44 -18 0 -23 -5 -23 -23 0 -14 -4 -21 -10 -18 -5 3 -10 35
-10 71 l0 65 33 -3 c31 -3 32 -5 32 -48z m103 23 c3 -19 -1 -23 -22 -23 -16 0
-26 -6 -26 -15 0 -15 11 -19 39 -16 7 2 10 -2 6 -8 -12 -20 -45 -12 -57 14
-16 36 4 78 35 73 14 -2 23 -11 25 -25z m102 -24 c5 -45 5 -46 -22 -47 -14 0
-32 5 -38 12 -14 18 -2 46 21 46 11 0 19 7 19 16 0 11 -6 14 -21 9 -15 -5 -19
-4 -14 5 4 6 17 10 28 8 18 -2 23 -12 27 -49z m5990 48 c0 -13 -92 -243 -100
-251 -18 -18 -11 10 26 111 20 54 41 108 45 121 7 18 29 32 29 19z m-170 -66
c0 -5 -16 -19 -35 -31 -19 -12 -35 -25 -35 -28 0 -4 16 -18 35 -31 31 -21 45
-41 29 -41 -11 0 -94 61 -94 70 0 9 79 69 93 70 4 0 7 -4 7 -9z m286 -23 c24
-17 44 -35 44 -39 0 -8 -84 -69 -94 -69 -17 0 -2 22 30 44 l35 24 -35 27 c-32
25 -46 45 -30 45 3 0 26 -14 50 -32z m-6809 -130 c-45 -115 -61 -150 -65 -140
-5 15 49 152 61 152 5 0 7 -6 4 -12z m101 4 c-1 -4 -16 -40 -33 -81 -16 -40
-31 -68 -33 -62 -5 14 50 151 61 151 5 0 7 -3 5 -8z m192 -6 c10 -13 7 -15
-16 -13 -38 3 -41 -19 -5 -38 31 -15 36 -29 25 -59 -8 -22 -64 -22 -64 0 0 13
3 14 15 4 8 -6 19 -9 25 -5 18 11 11 34 -15 51 -27 17 -34 59 -12 67 22 9 34
7 47 -7z m610 -57 c0 -70 0 -70 -26 -67 -37 4 -51 29 -38 65 7 20 16 27 32 26
17 -2 22 2 22 22 0 14 2 25 5 25 3 0 5 -32 5 -71z m-402 13 c3 -9 -3 -11 -23
-6 -25 6 -26 5 -23 -27 3 -29 7 -34 26 -32 13 2 21 -1 17 -7 -8 -14 -38 -13
-53 2 -16 16 -15 61 0 76 16 16 50 12 56 -6z m99 2 c2 -7 -6 -10 -22 -7 -22 5
-25 2 -25 -25 0 -37 15 -49 37 -30 14 11 15 11 11 -2 -12 -38 -68 -13 -68 31
0 37 57 65 67 33z m101 -16 c3 -24 0 -28 -23 -28 -17 0 -25 -5 -22 -12 2 -7
14 -12 26 -11 11 2 21 -2 21 -7 0 -14 -44 -12 -58 2 -27 27 -4 91 31 86 16 -2
23 -11 25 -30z m86 26 c9 -3 16 -17 16 -30 0 -19 -5 -24 -26 -24 -16 0 -24 -5
-21 -12 2 -7 14 -12 26 -11 11 2 21 -2 21 -7 0 -14 -44 -12 -58 2 -17 17 -15
54 4 72 18 18 17 18 38 10z m-434 -39 c0 -24 5 -35 15 -35 10 0 15 11 15 35 0
19 5 35 10 35 6 0 10 -20 10 -45 0 -43 -1 -45 -29 -45 -17 0 -31 6 -35 16 -10
25 -7 74 4 74 6 0 10 -16 10 -35z m6162 -132 c12 -11 18 -30 18 -63 0 -38 5
-51 27 -70 l26 -23 -26 -14 c-24 -12 -27 -20 -27 -63 0 -31 -6 -54 -16 -64
-20 -21 -64 -21 -64 -1 0 8 9 15 19 15 22 0 31 19 31 68 0 19 7 43 15 52 14
15 14 18 0 30 -10 8 -15 30 -15 61 0 44 -3 51 -25 59 -14 5 -25 14 -25 20 0
16 42 12 62 -7z m-6524 -139 c18 -12 22 -25 22 -70 0 -49 3 -55 25 -64 14 -5
25 -13 25 -18 0 -5 -11 -14 -25 -20 -22 -10 -25 -18 -25 -63 0 -59 -19 -89
-57 -89 -30 0 -31 28 0 32 19 3 22 10 25 53 2 27 10 58 19 67 15 16 15 20 0
36 -9 9 -17 40 -19 67 -3 43 -6 50 -25 53 -27 4 -31 32 -5 32 10 0 28 -7 40
-16z m6680 -421 c3 -10 -33 -13 -157 -13 -138 0 -161 2 -161 15 0 13 22 15
157 13 114 -2 157 -6 161 -15z m62 2 c0 -8 -7 -15 -15 -15 -16 0 -20 12 -8 23
11 12 23 8 23 -8z m-60 -184 c0 -6 -5 -13 -11 -17 -16 -9 -259 6 -259 17 0 5
61 9 135 9 78 0 135 -4 135 -9z m120 -6 c0 -16 -17 -19 -44 -9 -22 9 -10 24
20 24 15 0 24 -6 24 -15z m-2508 -264 l33 -29 2 -622 2 -621 156 -115 155
-116 0 -48 c0 -42 -4 -52 -31 -74 l-31 -26 -1342 0 -1343 0 -34 23 c-30 20
-34 28 -37 73 l-3 51 158 119 158 118 -3 605 c-2 445 0 613 9 634 25 59 -29
56 1091 57 l1028 0 32 -29z m-4277 -378 c14 -13 46 -18 166 -23 82 -3 151 -9
154 -12 3 -3 -63 -7 -147 -10 -120 -4 -159 -8 -179 -21 -23 -15 -27 -15 -47
-1 -26 18 -28 41 -5 66 20 22 37 23 58 1z m6726 7 c27 -15 26 -66 -2 -80 -16
-9 -26 -8 -47 6 -21 14 -57 18 -189 22 -90 3 -166 8 -168 12 -2 4 71 9 164 12
135 4 173 8 192 21 28 20 25 20 50 7z m-1150 -37 c7 -7 9 -16 5 -20 -8 -9
-660 -7 -791 1 -44 3 -89 5 -99 6 -13 0 -17 3 -10 10 10 10 280 16 666 15 158
0 220 -3 229 -12z m-3808 -10 c-24 -2 -62 -2 -85 0 -24 2 -5 4 42 4 47 0 66
-2 43 -4z m3920 0 c-13 -2 -33 -2 -45 0 -13 2 -3 4 22 4 25 0 35 -2 23 -4z
m-4983 -335 c19 -21 33 -24 143 -29 l122 -5 -122 -2 c-111 -2 -123 -4 -133
-22 -14 -25 -52 -26 -74 -1 -14 15 -15 24 -7 40 9 16 36 39 48 41 1 0 12 -10
23 -22z m5140 12 c11 -6 25 -20 31 -31 22 -43 -51 -80 -90 -45 -11 10 -60 17
-156 24 l-140 9 135 2 c129 1 137 2 160 25 29 28 34 30 60 16z m-4238 -58 c18
-16 57 -45 87 -65 52 -36 55 -37 152 -37 54 0 101 -4 104 -10 4 -6 -34 -10
-105 -10 l-112 0 -79 60 -78 60 -273 0 -273 0 -118 -85 -119 -85 -281 0 c-194
0 -291 -4 -314 -12 -28 -10 -36 -10 -48 3 -33 33 11 70 51 44 19 -12 69 -15
299 -15 l276 0 55 35 c31 20 83 57 117 84 34 26 69 50 77 54 8 3 135 6 282 6
l267 1 33 -28z m3898 -17 c28 -24 63 -51 80 -60 16 -8 49 -28 73 -45 l45 -30
357 0 c303 0 359 2 371 15 18 17 54 4 54 -19 0 -24 -27 -39 -49 -27 -13 7
-143 11 -381 11 l-360 0 -68 42 c-37 23 -92 62 -122 85 l-55 43 -301 0 c-292
0 -301 -1 -320 -21 -10 -11 -47 -41 -82 -65 l-64 -45 -104 7 c-128 8 -118 24
14 24 90 0 96 1 145 34 29 19 65 48 81 65 l30 31 303 0 302 0 51 -45z m-5565
-75 c4 -6 1 -17 -5 -25 -16 -19 -52 -2 -44 20 7 17 40 20 49 5z m6835 -9 c0
-24 -25 -34 -40 -16 -15 18 -5 35 21 35 12 0 19 -7 19 -19z m-6670 -1 c0 -6
-27 -10 -60 -10 -33 0 -60 4 -60 10 0 6 27 10 60 10 33 0 60 -4 60 -10z m6570
0 c0 -6 -30 -10 -70 -10 -40 0 -70 4 -70 10 0 6 30 10 70 10 40 0 70 -4 70
-10z m-4735 -82 c7 -7 -51 -9 -183 -5 l-193 5 -47 -31 -47 -32 -172 -3 c-95
-2 -173 -7 -173 -12 0 -5 -10 -12 -22 -15 -13 -4 -46 -23 -75 -42 l-52 -35
-173 -5 c-131 -3 -177 -8 -189 -19 -21 -19 -54 -18 -73 2 -21 20 -20 43 1 66
21 23 39 23 70 -2 23 -18 41 -20 196 -20 167 0 171 0 204 26 24 18 33 33 33
54 0 21 8 35 25 46 25 16 27 16 49 -5 23 -21 30 -22 178 -19 l155 3 49 32 49
32 190 -5 c108 -4 194 -10 200 -16z m3012 -13 l58 -35 146 0 c116 0 149 3 159
15 32 38 90 18 90 -31 0 -16 13 -33 42 -54 l41 -30 179 0 c167 0 181 1 208 21
28 21 30 21 54 5 28 -18 34 -54 14 -74 -16 -16 -65 -15 -75 2 -6 11 -48 15
-193 18 l-185 4 -54 41 c-64 49 -82 53 -281 61 -152 7 -156 8 -214 40 l-59 33
-157 -7 c-87 -4 -171 -3 -186 2 -31 9 73 18 263 22 89 2 94 1 150 -33z m-3007
-145 c0 -6 -33 -10 -79 -10 l-80 0 -118 -90 -118 -90 -216 0 c-183 0 -219 -2
-229 -16 -7 -8 -24 -14 -38 -12 -59 7 -51 88 8 88 18 0 33 -6 36 -15 5 -13 39
-15 223 -15 l216 1 110 83 110 84 88 1 c52 1 87 -3 87 -9z m2832 -75 l113 -85
228 0 c142 0 227 4 227 10 0 5 11 12 25 16 27 7 65 -18 65 -42 0 -36 -74 -61
-86 -29 -5 13 -41 15 -233 15 l-226 0 -55 42 c-30 23 -83 63 -117 90 l-62 48
-91 0 c-53 0 -90 4 -90 10 0 6 38 10 95 10 l94 0 113 -85z m-1662 -613 c0 -4
-10 -12 -22 -17 -19 -8 -24 -19 -26 -62 -2 -30 -9 -56 -18 -64 -13 -10 -13
-14 0 -28 8 -9 16 -39 18 -66 3 -43 6 -50 26 -53 12 -2 22 -10 22 -19 0 -12
-7 -14 -27 -9 -39 10 -53 33 -53 88 0 42 -3 48 -25 54 -14 3 -25 12 -25 18 0
7 11 18 25 24 21 10 25 18 25 58 0 54 20 84 57 84 12 0 23 -3 23 -8z m264 -5
c13 -9 20 -31 24 -66 4 -43 9 -55 28 -63 31 -14 30 -26 -1 -40 -21 -10 -25
-18 -25 -58 0 -56 -14 -78 -59 -86 -26 -6 -33 -4 -29 7 3 8 13 16 24 18 26 5
34 19 34 65 0 22 7 47 15 56 14 15 14 18 0 30 -9 8 -15 29 -15 56 0 44 -19 74
-46 74 -8 0 -14 5 -14 10 0 14 43 12 64 -3z"/>
<path d="M6713 5225 c-113 -20 -274 -77 -260 -91 2 -2 37 7 77 21 211 72 386
72 573 0 10 -4 17 -2 17 4 0 17 -96 57 -165 70 -75 14 -151 13 -242 -4z"/>
<path d="M6733 4815 c-107 -30 -212 -96 -316 -200 -205 -206 -348 -520 -318
-703 27 -167 139 -254 306 -239 129 12 246 77 385 215 197 195 309 438 298
647 -3 49 -12 106 -21 126 -51 122 -202 191 -334 154z"/>
<path d="M5612 3910 c0 -14 2 -19 5 -12 2 6 2 18 0 25 -3 6 -5 1 -5 -13z"/>
<path d="M6925 3425 c-257 -164 -551 -205 -788 -110 -88 35 -109 27 -32 -12
211 -107 460 -88 736 53 71 37 178 113 159 113 -3 0 -36 -20 -75 -44z"/>
<path d="M4748 2785 c-88 -83 -164 -132 -264 -172 -63 -25 -80 -27 -204 -27
-114 0 -144 4 -194 22 -68 25 -66 25 -66 13 0 -13 88 -48 158 -61 183 -36 382
24 537 163 54 48 121 125 114 131 -2 2 -39 -29 -81 -69z"/>
<path d="M3782 4858 c2 -18 8 -33 13 -33 6 0 11 15 13 33 3 24 -1 32 -13 32
-12 0 -16 -8 -13 -32z"/>
<path d="M3687 4893 c-10 -10 -8 -61 2 -68 11 -6 24 11 28 36 3 19 -20 43 -30
32z"/>
<path d="M3880 4880 c0 -5 9 -10 21 -10 11 0 17 5 14 10 -3 6 -13 10 -21 10
-8 0 -14 -4 -14 -10z"/>
<path d="M3574 4664 c3 -9 6 -18 6 -20 0 -2 7 -4 15 -4 8 0 15 9 15 20 0 14
-7 20 -21 20 -15 0 -19 -4 -15 -16z"/>
<path d="M3580 4600 c0 -11 6 -20 13 -20 19 0 27 10 20 26 -8 21 -33 17 -33
-6z"/>
<path d="M3980 4610 c0 -20 5 -30 15 -30 10 0 15 10 15 30 0 20 -5 30 -15 30
-10 0 -15 -10 -15 -30z"/>
<path d="M3580 4410 c0 -11 7 -20 15 -20 8 0 15 9 15 20 0 11 -7 20 -15 20 -8
0 -15 -9 -15 -20z"/>
<path d="M3686 4393 c-11 -11 -6 -23 9 -23 8 0 15 4 15 9 0 13 -16 22 -24 14z"/>
<path d="M3793 4393 c-19 -7 -17 -63 2 -63 9 0 18 7 22 16 8 20 -9 52 -24 47z"/>
<path d="M3887 4394 c-13 -13 -7 -24 14 -24 11 0 19 5 17 12 -5 14 -22 21 -31
12z"/>
<path d="M3985 4350 c-8 -13 4 -32 16 -25 12 8 12 35 0 35 -6 0 -13 -4 -16
-10z"/>
<path d="M4182 4108 c2 -21 8 -33 18 -33 10 0 16 12 18 33 3 27 0 32 -18 32
-18 0 -21 -5 -18 -32z"/>
<path d="M3980 4130 c0 -5 9 -10 21 -10 11 0 17 5 14 10 -3 6 -13 10 -21 10
-8 0 -14 -4 -14 -10z"/>
<path d="M4080 4130 c0 -5 9 -10 21 -10 11 0 17 5 14 10 -3 6 -13 10 -21 10
-8 0 -14 -4 -14 -10z"/>
<path d="M5505 2945 l-25 -24 0 -590 c0 -324 3 -596 6 -605 6 -14 108 -16
1058 -16 805 0 1055 3 1064 12 9 9 12 157 12 605 l0 594 -25 24 -24 25 -1021
0 -1021 0 -24 -25z m1063 -28 c2 -12 -3 -17 -17 -17 -15 0 -21 6 -21 21 0 25
33 22 38 -4z m960 -562 c1 -280 0 -520 -3 -533 l-5 -22 -973 2 -972 3 -3 520
c-1 286 0 526 3 533 3 10 204 12 977 10 l973 -3 3 -510z"/>
<path d="M5600 2335 l0 -505 950 0 950 0 0 505 0 505 -950 0 -950 0 0 -505z
m128 404 c-2 -6 -8 -10 -13 -10 -5 0 -11 4 -13 10 -2 6 4 11 13 11 9 0 15 -5
13 -11z m42 -49 c0 -5 -7 -10 -15 -10 -8 0 -15 5 -15 10 0 6 7 10 15 10 8 0
15 -4 15 -10z m330 0 c0 -6 -55 -10 -145 -10 -90 0 -145 4 -145 10 0 6 55 10
145 10 90 0 145 -4 145 -10z m-353 -532 c-1 -90 -3 -17 -3 162 0 179 2 252 3
163 2 -90 2 -236 0 -325z m103 462 c0 -5 -7 -10 -15 -10 -8 0 -15 5 -15 10 0
6 7 10 15 10 8 0 15 -4 15 -10z m575 0 c-29 -12 -552 -12 -560 0 -4 7 94 10
287 9 173 0 285 -4 273 -9z m150 -70 l70 -7 -72 -1 c-99 -3 -589 -5 -636 -3
-23 0 -36 5 -32 11 7 12 558 12 670 0z m460 -70 c4 -7 -183 -10 -554 -10 -367
0 -561 3 -561 10 0 7 191 10 554 10 359 0 557 -4 561 -10z m-530 -70 c-4 -6
-112 -10 -290 -10 -178 0 -286 4 -290 10 -4 7 95 10 290 10 195 0 294 -3 290
-10z m-204 -57 c238 -9 175 -21 -116 -22 -213 -1 -278 5 -239 20 25 10 130 11
355 2z m279 -74 c105 -1 133 -4 100 -9 -56 -10 -657 -12 -714 -3 -90 15 12 23
239 18 127 -3 295 -6 375 -6z m-235 -80 c-58 -12 -412 -11 -420 1 -4 7 74 10
227 9 151 -1 219 -4 193 -10z m240 -69 c-4 -6 -123 -10 -326 -10 -206 0 -319
4 -319 10 0 6 115 10 326 10 214 0 323 -3 319 -10z m575 -70 c10 -6 -205 -10
-617 -10 -416 0 -633 3 -633 10 0 13 1229 13 1250 0z m-720 -70 c15 -5 -48 -8
-152 -9 -106 -1 -179 -5 -183 -11 -8 -13 -275 -13 -275 -1 0 15 27 18 160 21
69 1 127 4 129 6 8 7 295 2 321 -6z m-695 -59 c7 -12 -12 -24 -25 -16 -11 7
-4 25 10 25 5 0 11 -4 15 -9z"/>
<path d="M6382 1682 l-913 -2 -142 -108 -142 -107 620 -5 c697 -6 2105 0 2104
9 0 6 -242 186 -270 201 -22 13 -281 15 -1257 12z m-637 -32 c-3 -5 -40 -10
-81 -10 -43 0 -74 4 -74 10 0 6 34 10 81 10 51 0 78 -4 74 -10z m160 0 c-3 -5
-30 -10 -60 -10 -30 0 -57 5 -60 10 -4 6 18 10 60 10 42 0 64 -4 60 -10z m125
0 c0 -5 -20 -10 -45 -10 -25 0 -45 5 -45 10 0 6 20 10 45 10 25 0 45 -4 45
-10z m215 1 c-7 -12 -185 -11 -185 0 0 5 43 9 96 9 57 0 93 -4 89 -9z m455 0
c0 -10 -415 -9 -426 2 -4 4 90 7 209 7 120 0 217 -4 217 -9z m140 1 c0 -10
-116 -9 -126 1 -4 4 23 7 59 7 37 0 67 -4 67 -8z m236 1 c-10 -10 -196 -11
-196 -1 0 4 46 8 102 8 56 0 98 -3 94 -7z m94 -3 c0 -5 -16 -10 -35 -10 -19 0
-35 5 -35 10 0 6 16 10 35 10 19 0 35 -4 35 -10z m150 0 c0 -6 -27 -10 -60
-10 -33 0 -60 4 -60 10 0 6 27 10 60 10 33 0 60 -4 60 -10z m190 1 c0 -6 -17
-12 -37 -14 -28 -3 -23 -4 20 -5 31 -1 57 -6 57 -12 0 -11 -118 -14 -146 -3
-16 6 -16 7 2 14 15 6 12 8 -13 8 -17 1 -35 6 -38 11 -4 6 23 10 74 10 45 0
81 -4 81 -9z m-1790 -31 c-20 -13 -170 -13 -170 0 0 6 37 10 93 10 63 0 87 -3
77 -10z m570 0 c0 -7 -95 -10 -270 -9 -166 0 -268 4 -265 10 9 13 535 12 535
-1z m160 0 c0 -6 -26 -10 -59 -10 -33 0 -63 5 -66 10 -4 6 18 10 59 10 37 0
66 -4 66 -10z m204 1 c3 -5 -30 -9 -73 -10 -44 -1 -83 3 -86 9 -4 6 23 10 74
10 44 0 82 -4 85 -9z m116 -1 c0 -5 -20 -10 -44 -10 -25 0 -48 5 -51 10 -4 6
13 10 44 10 28 0 51 -4 51 -10z m160 0 c0 -6 -27 -10 -60 -10 -33 0 -60 4 -60
10 0 6 27 10 60 10 33 0 60 -4 60 -10z m435 1 c3 -6 -71 -10 -184 -10 -105 0
-193 4 -196 9 -3 5 73 9 184 9 106 1 192 -3 196 -8z m-1687 -33 c-6 -16 -188
-24 -188 -9 0 15 21 19 108 20 63 1 83 -2 80 -11z m200 0 c-5 -16 -168 -24
-168 -9 0 15 20 19 98 20 55 1 73 -2 70 -11z m1122 -2 c0 -5 -226 -11 -545
-12 -469 -3 -545 -1 -545 11 0 12 77 14 545 12 320 -1 545 -6 545 -11z m263 8
c45 -13 7 -23 -85 -23 -110 0 -151 6 -143 19 6 9 198 12 228 4z m125 0 c35
-10 26 -24 -17 -24 -44 0 -71 8 -71 21 0 10 54 12 88 3z m206 0 c9 -3 16 -10
16 -15 0 -15 -163 -6 -168 9 -3 9 15 12 66 12 39 0 77 -3 86 -6z m-703 -81
l21 -33 -361 0 c-199 0 -361 2 -361 5 0 3 10 19 22 36 l22 29 318 -2 319 -3
20 -32z"/>
<path d="M5193 1433 c-30 -6 -31 -47 -1 -67 20 -14 165 -16 1359 -16 l1336 0
27 21 c17 14 26 29 24 43 l-3 21 -562 0 c-436 0 -565 -3 -575 -12 -19 -20
-466 -18 -491 2 -16 11 -111 13 -555 13 -296 0 -547 -2 -559 -5z"/>
<path d="M3990 2185 c0 -8 9 -15 20 -15 11 0 20 7 20 15 0 8 -9 15 -20 15 -11
0 -20 -7 -20 -15z"/>
<path d="M9130 2185 c0 -9 7 -18 15 -21 23 -9 45 3 39 21 -8 20 -54 20 -54 0z"/>
<path d="M3500 2010 c0 -5 5 -10 10 -10 6 0 10 5 10 10 0 6 -4 10 -10 10 -5 0
-10 -4 -10 -10z"/>
<path d="M4404 1945 c-4 -10 -1 -21 7 -26 20 -12 34 -5 34 17 0 24 -33 31 -41
9z"/>
<path d="M3897 1844 c-14 -14 -7 -35 11 -32 9 2 17 10 17 17 0 16 -18 25 -28
15z"/>
<path d="M8665 1940 c-8 -13 20 -24 41 -16 20 8 9 26 -16 26 -10 0 -22 -5 -25
-10z"/>
<path d="M9223 1834 c-8 -20 8 -36 26 -25 15 10 8 41 -9 41 -6 0 -13 -7 -17
-16z"/>
<path d="M4387 1667 c-8 -21 8 -39 29 -35 27 5 25 42 -2 46 -12 2 -24 -3 -27
-11z"/>
<path d="M8693 1664 c-3 -8 -1 -20 5 -26 16 -16 42 -2 42 22 0 24 -38 28 -47
4z"/>
</g>
</svg>
