<?xml version="1.0" standalone="no"?>
<!DOCTYPE svg PUBLIC "-//W3C//DTD SVG 20010904//EN"
 "http://www.w3.org/TR/2001/REC-SVG-20010904/DTD/svg10.dtd">
<svg version="1.0" xmlns="http://www.w3.org/2000/svg"
 width="994.000000pt" height="1011.000000pt" viewBox="0 0 994.000000 1011.000000"
 preserveAspectRatio="xMidYMid meet">

<g transform="translate(0.000000,1011.000000) scale(0.100000,-0.100000)"
fill="#000000" stroke="none">
<path d="M0 5055 l0 -5055 4970 0 4970 0 0 5055 0 5055 -4970 0 -4970 0 0
-5055z m2867 2673 c15 3 29 -1 34 -9 12 -19 11 -89 -1 -89 -5 0 -10 18 -10 39
0 22 -5 43 -10 46 -19 12 -40 -16 -40 -51 0 -19 -4 -34 -8 -34 -5 0 -7 28 -7
63 3 78 7 101 12 61 4 -27 7 -30 30 -26z m589 13 c-20 -39 -20 -80 0 -109 21
-30 13 -38 -11 -12 -24 27 -25 98 -2 134 24 36 33 27 13 -13z m594 -47 c0 -39
-24 -94 -41 -94 -7 0 -5 10 5 25 20 30 21 95 1 121 -24 32 -16 41 10 11 16
-18 25 -40 25 -63z m240 76 c0 -5 -4 -10 -10 -10 -5 0 -10 -10 -10 -23 0 -13
-5 -28 -11 -34 -8 -8 -8 -17 1 -32 6 -12 8 -25 5 -30 -3 -5 2 -17 12 -26 16
-16 15 -17 -3 -13 -13 2 -20 13 -22 33 -2 17 -11 36 -20 43 -16 12 -16 14 1
23 10 6 17 22 17 39 0 25 9 37 33 39 4 1 7 -3 7 -9z m-1290 -10 c0 -5 -4 -10
-10 -10 -5 0 -10 5 -10 10 0 6 5 10 10 10 6 0 10 -4 10 -10z m110 -54 c0 -53
3 -65 18 -69 9 -3 -3 -5 -28 -5 -25 0 -37 2 -27 5 14 4 17 16 17 63 0 47 -3
59 -17 63 -11 3 -7 5 10 6 27 1 27 0 27 -63z m450 39 c0 -8 10 -16 23 -16 l22
-2 -22 -4 c-19 -4 -23 -11 -23 -39 0 -26 5 -37 23 -44 20 -9 19 -9 -8 -7 -28
2 -30 5 -33 45 -2 31 -8 42 -20 43 -15 1 -15 2 1 6 9 2 17 11 17 19 0 8 5 14
10 14 6 0 10 -7 10 -15z m-840 -46 c0 -17 4 -28 10 -24 6 3 10 15 10 26 0 27
18 24 26 -6 8 -30 24 -23 24 11 0 13 4 24 9 24 4 0 4 -23 -2 -50 -11 -55 -28
-61 -38 -14 l-6 29 -8 -32 c-8 -35 -35 -46 -35 -14 0 10 -3 33 -6 50 -4 20 -3
31 5 31 6 0 11 -14 11 -31z m275 -13 c0 -30 5 -41 20 -47 14 -5 4 -8 -30 -8
-40 0 -45 2 -27 9 28 12 31 64 5 80 -16 9 -15 10 7 8 22 -3 25 -8 25 -42z
m255 29 c21 -25 4 -48 -31 -41 -25 5 -30 3 -27 -12 2 -11 13 -17 31 -17 15 1
27 -3 27 -7 0 -13 -55 -9 -68 4 -7 7 -12 24 -12 38 0 14 5 31 12 38 17 17 53
15 68 -3z m469 -3 c0 -10 -3 -12 -6 -4 -12 31 -53 -7 -53 -50 0 -45 -12 -27
-16 25 l-4 43 40 1 c32 2 40 -2 39 -15z m51 -21 c0 -22 5 -43 10 -46 19 -12
40 16 40 51 0 19 5 34 10 34 6 0 10 -22 10 -48 l0 -49 -37 -1 c-20 -1 -41 4
-45 11 -11 18 -10 87 2 87 6 0 10 -18 10 -39z m179 17 c11 -30 5 -39 -24 -32
-33 8 -50 -3 -34 -23 8 -9 21 -12 36 -8 13 3 23 1 23 -5 0 -5 -16 -10 -35 -10
-39 0 -60 27 -49 63 13 43 69 53 83 15z m-374 -228 c-12 -13 -18 -36 -18 -65
0 -29 6 -52 18 -65 10 -11 13 -20 7 -20 -20 0 -42 44 -42 85 0 41 22 85 42 85
6 0 3 -9 -7 -20z m110 -24 c18 -46 15 -72 -13 -114 -21 -32 -27 -20 -8 17 20
38 20 74 1 111 -9 17 -11 30 -6 30 5 0 17 -20 26 -44z m115 -17 c0 -5 -7 -9
-15 -9 -15 0 -20 12 -9 23 8 8 24 -1 24 -14z m0 -78 c0 -10 -6 -24 -13 -30
-11 -8 -14 -5 -14 19 0 18 6 30 14 30 7 0 13 -8 13 -19z m-114 -163 c-20 -29
-21 -102 -1 -118 17 -14 20 -30 5 -30 -14 0 -40 55 -40 85 0 31 26 85 41 85 5
0 3 -10 -5 -22z m108 0 c29 -41 12 -148 -23 -148 -5 0 0 17 10 37 10 21 19 42
19 48 0 6 -9 27 -19 48 -21 40 -12 50 13 15z m118 -33 c0 -5 -5 -11 -11 -13
-6 -2 -11 4 -11 13 0 9 5 15 11 13 6 -2 11 -8 11 -13z m-555 -17 c-3 -8 -6 -5
-6 6 -1 11 2 17 5 13 3 -3 4 -12 1 -19z m559 -53 c4 -8 1 -22 -6 -30 -15 -18
-34 -20 -23 -2 4 6 6 20 5 30 -4 21 16 23 24 2z m4512 -103 c-11 -16 -141
-173 -388 -472 -36 -43 -119 -143 -186 -222 -67 -79 -127 -155 -135 -168 -8
-14 -20 -33 -28 -42 -9 -12 -10 -18 -3 -18 6 0 16 9 22 21 7 11 17 18 24 16
15 -6 76 39 76 56 0 6 -17 -5 -37 -24 l-38 -34 34 37 c19 21 37 36 39 33 8 -7
120 91 210 184 45 47 82 81 82 75 0 -6 -10 -19 -21 -30 -12 -10 -63 -71 -114
-134 -51 -63 -132 -164 -181 -225 -96 -117 -134 -169 -134 -180 0 -3 10 -4 23
0 15 4 2 -12 -38 -50 l-60 -56 74 55 c56 42 83 56 108 56 32 0 43 -12 22 -25
-6 -4 -45 -49 -87 -99 -42 -51 -178 -213 -302 -361 -124 -147 -241 -287 -260
-311 -19 -23 -52 -63 -73 -87 l-37 -45 81 -157 c60 -116 79 -159 70 -168 -16
-16 -14 -32 3 -18 17 14 26 -1 109 -164 30 -60 107 -211 171 -334 64 -124 116
-229 116 -233 0 -4 -160 -8 -355 -8 l-355 0 -145 290 c-80 160 -147 290 -149
290 -3 0 -38 -40 -78 -88 -40 -49 -149 -180 -242 -290 l-168 -202 -84 0 c-46
0 -84 3 -84 8 0 4 7 16 15 26 29 38 14 40 -20 4 -21 -24 -43 -38 -58 -38 -23
0 -61 -29 -289 -226 -93 -80 -119 -88 -42 -14 41 40 204 233 204 242 0 2 -16
2 -35 0 -32 -4 -40 -12 -36 -35 1 -5 -2 -6 -7 -3 -12 7 -32 -9 -80 -66 -25
-29 -44 -44 -48 -37 -4 7 -45 -26 -103 -83 -176 -173 -441 -420 -441 -413 0 4
15 24 33 44 17 20 52 61 77 91 25 29 115 135 200 235 85 99 170 200 188 223
33 41 33 42 12 50 -20 8 -19 11 27 55 26 26 43 47 37 47 -6 0 -21 -11 -34 -25
-18 -19 -26 -22 -32 -13 -5 9 -16 2 -38 -24 -18 -21 -36 -38 -41 -38 -5 0 18
33 51 73 34 39 89 106 123 147 114 138 579 684 654 766 l73 82 -240 461 c-132
253 -240 463 -240 466 0 3 161 5 358 5 l357 0 105 -210 c58 -115 107 -210 110
-210 3 1 82 91 175 202 94 110 181 207 195 217 22 15 66 59 119 121 l22 25
-15 -32 c-13 -26 -13 -32 -2 -36 9 -4 30 15 57 50 50 67 331 355 474 486 102
94 100 80 -4 -28 -32 -33 -92 -100 -133 -150 -42 -49 -130 -153 -197 -230
-123 -142 -157 -195 -76 -115 53 52 67 50 23 -5 -18 -21 -28 -36 -22 -34 14 6
900 907 1019 1037 48 52 67 68 43 34z m-4728 -49 c0 -5 -7 -17 -15 -27 -20
-26 -19 -86 1 -114 20 -29 13 -39 -10 -13 -26 29 -31 83 -11 125 15 32 36 49
35 29z m94 -15 c23 -33 20 -100 -5 -132 -29 -37 -33 -28 -9 19 21 40 19 72 -6
113 -19 29 0 29 20 0z m126 -39 c0 -5 -7 -9 -15 -9 -15 0 -20 12 -9 23 8 8 24
-1 24 -14z m-4 -70 c3 -6 -4 -21 -16 -33 -20 -18 -22 -19 -16 -3 3 10 6 25 6
33 0 17 16 19 26 3z m-116 -171 c-11 -18 -20 -44 -20 -58 0 -14 9 -40 20 -57
22 -37 10 -46 -14 -11 -30 42 -12 158 24 158 6 0 1 -15 -10 -32z m113 -9 c20
-37 17 -78 -9 -117 -22 -33 -27 -22 -8 17 19 39 13 94 -13 124 -14 15 -15 19
-3 15 8 -2 23 -20 33 -39z m-246 -15 c-3 -3 -12 -4 -19 -1 -8 3 -5 6 6 6 11 1
17 -2 13 -5z m363 -4 c0 -5 -7 -10 -15 -10 -8 0 -15 5 -15 10 0 6 7 10 15 10
8 0 15 -4 15 -10z m0 -79 c0 -10 -6 -23 -13 -30 -11 -8 -13 -5 -9 19 5 33 22
41 22 11z m-1276 -157 c3 -9 6 -23 6 -31 0 -9 8 -22 18 -29 16 -12 16 -13 0
-14 -12 0 -18 -10 -20 -37 -3 -32 -7 -38 -28 -40 -14 -1 -18 1 -8 3 30 9 30
149 -1 157 -11 3 -10 5 5 6 12 0 25 -6 28 -15z m4711 -102 c-107 -100 -168
-151 -176 -146 -9 5 -1 34 11 34 8 0 91 63 159 122 62 54 66 47 6 -10z m-3745
-156 c0 -3 -27 -134 -60 -293 -33 -158 -60 -291 -60 -295 0 -5 -196 -8 -435
-8 -388 0 -435 2 -435 16 0 15 106 534 116 567 5 16 35 17 440 17 239 0 434
-2 434 -4z m3555 -6 c-3 -5 -13 -10 -21 -10 -8 0 -12 5 -9 10 3 6 13 10 21 10
8 0 12 -4 9 -10z m-95 -65 c0 -2 -10 -10 -22 -16 -21 -11 -22 -11 -9 4 13 16
31 23 31 12z m-60 -49 c0 -3 -4 -8 -10 -11 -5 -3 -10 -1 -10 4 0 6 5 11 10 11
6 0 10 -2 10 -4z m-3540 -542 c0 -9 -98 -485 -194 -944 -46 -223 -90 -432 -96
-465 -73 -361 -271 -595 -587 -692 l-88 -27 -416 -4 -417 -4 43 209 c24 114
55 267 70 338 15 72 30 136 34 142 5 9 23 4 66 -19 84 -44 166 -68 261 -75
227 -17 366 71 413 260 6 26 43 201 82 390 39 188 87 421 106 518 l37 176 90
28 c106 33 577 173 589 174 4 1 7 -2 7 -5z m1804 -1654 c-53 -61 -99 -109
-101 -106 -6 6 178 216 189 216 5 0 -35 -50 -88 -110z m-136 -144 c-7 -8 -15
-12 -17 -11 -5 6 10 25 20 25 5 0 4 -6 -3 -14z m-2798 -1826 c0 -11 -4 -20
-10 -20 -5 0 -10 5 -10 10 0 6 -18 10 -40 10 l-41 0 3 -62 3 -63 33 -3 c18 -2
40 2 49 9 13 11 15 10 12 -6 -5 -27 -89 -34 -109 -10 -16 20 -22 125 -8 142 6
8 33 13 64 13 47 0 54 -2 54 -20z m298 8 c18 -18 15 -123 -4 -142 -18 -19 -94
-22 -112 -4 -16 16 -16 130 0 146 7 7 33 12 58 12 25 0 51 -5 58 -12z m310 0
c7 -7 12 -37 12 -67 0 -74 -17 -91 -87 -91 l-53 0 0 85 0 85 58 0 c32 0 63 -5
70 -12z m302 2 c0 -5 -20 -10 -45 -10 -41 0 -45 -2 -45 -25 0 -22 4 -25 40
-25 22 0 40 -4 40 -10 0 -5 -18 -10 -40 -10 -38 0 -40 -2 -40 -30 0 -29 2 -30
45 -30 25 0 45 -5 45 -10 0 -7 -22 -10 -57 -8 l-58 3 -3 83 -3 82 61 0 c33 0
60 -4 60 -10z m656 -2 c13 -20 14 -130 3 -145 -7 -8 -33 -13 -65 -13 l-54 0 0
85 0 85 54 0 c32 0 58 -5 62 -12z m204 -37 c0 -27 4 -62 10 -76 8 -22 15 -26
42 -23 l33 3 3 73 c2 56 6 72 18 72 12 0 15 -13 13 -62 -2 -85 -17 -108 -72
-108 -24 0 -48 5 -55 12 -15 15 -17 158 -2 158 6 0 10 -22 10 -49z m332 37
c-14 -14 -16 -124 -2 -133 6 -3 10 -10 10 -16 0 -12 -47 -12 -55 1 -3 6 -1 10
4 10 15 0 14 123 -1 138 -9 9 -4 12 22 12 26 0 31 -3 22 -12z m208 -63 l0 -75
45 0 c25 0 45 -4 45 -10 0 -6 -27 -10 -60 -10 l-60 0 0 85 c0 69 3 85 15 85
12 0 15 -15 15 -75z m381 15 c4 -33 2 -65 -5 -80 -10 -22 -18 -25 -69 -28
l-57 -3 0 86 0 86 63 -3 62 -3 6 -55z m627 12 c2 -31 -1 -44 -13 -48 -14 -6
-13 -10 4 -40 15 -26 17 -34 7 -34 -8 0 -23 16 -35 35 -13 22 -28 35 -41 35
-16 0 -20 -6 -20 -35 0 -24 -5 -35 -15 -35 -12 0 -15 16 -15 85 l0 86 63 -3
62 -3 3 -43z m302 38 c0 -5 -22 -10 -50 -10 -47 0 -50 -2 -50 -25 0 -23 4 -25
45 -25 25 0 45 -4 45 -10 0 -5 -20 -10 -45 -10 -43 0 -45 -1 -45 -30 0 -29 1
-30 50 -30 28 0 50 -4 50 -10 0 -6 -27 -10 -60 -10 l-60 0 0 85 0 85 60 0 c33
0 60 -4 60 -10z m288 -2 c17 -17 15 -64 -4 -82 -9 -9 -32 -16 -55 -16 -37 0
-39 -2 -39 -30 0 -16 -4 -30 -10 -30 -6 0 -10 35 -10 85 l0 85 53 0 c29 0 58
-5 65 -12z m292 2 c0 -5 -20 -10 -45 -10 -41 0 -45 -2 -45 -25 0 -22 4 -25 40
-25 22 0 40 -4 40 -10 0 -5 -18 -10 -40 -10 -38 0 -40 -2 -40 -30 0 -29 2 -30
45 -30 25 0 45 -4 45 -10 0 -5 -25 -10 -55 -10 -45 0 -55 3 -56 18 0 9 -3 41
-5 71 -3 30 -3 60 0 67 6 16 116 20 116 4z m263 -7 c2 -10 16 -48 30 -85 20
-52 23 -68 12 -68 -7 0 -17 9 -20 20 -9 30 -77 28 -98 -2 -21 -32 -30 -18 -14
23 8 19 22 55 31 82 18 49 49 65 59 30z m327 7 c0 -5 -13 -10 -30 -10 l-30 0
0 -75 c0 -43 -4 -75 -10 -75 -6 0 -10 32 -10 75 l0 75 -30 0 c-16 0 -30 5 -30
10 0 6 30 10 70 10 40 0 70 -4 70 -10z"/>
<path d="M3197 7714 c-14 -14 -6 -24 19 -24 16 0 24 5 22 13 -5 14 -31 21 -41
11z"/>
<path d="M3890 7705 c-11 -13 -8 -15 19 -15 33 0 42 14 15 24 -21 8 -20 8 -34
-9z"/>
<path d="M7175 4458 c-16 -14 -39 -30 -50 -36 -17 -10 -14 -11 23 -10 47 1 65
16 60 49 l-3 22 -30 -25z"/>
<path d="M7001 4394 c0 -11 3 -14 6 -6 3 7 2 16 -1 19 -3 4 -6 -2 -5 -13z"/>
<path d="M6980 4120 c0 -5 5 -10 10 -10 6 0 10 5 10 10 0 6 -4 10 -10 10 -5 0
-10 -4 -10 -10z"/>
<path d="M7193 4099 c-22 -8 -42 -54 -29 -67 10 -10 54 -13 59 -5 3 5 2 24 -2
44 -5 33 -8 36 -28 28z"/>
<path d="M7009 4075 c-11 -16 -8 -68 3 -57 5 5 8 22 6 38 -2 16 -6 25 -9 19z"/>
<path d="M5566 4043 c-6 -14 -5 -15 5 -6 7 7 10 15 7 18 -3 3 -9 -2 -12 -12z"/>
<path d="M7316 4041 c-4 -5 -2 -12 3 -15 5 -4 12 -2 15 3 4 5 2 12 -3 15 -5 4
-12 2 -15 -3z"/>
<path d="M5549 3993 c-13 -16 -12 -17 4 -4 9 7 17 15 17 17 0 8 -8 3 -21 -13z"/>
<path d="M5500 3970 c-12 -12 -19 -24 -16 -28 4 -3 16 4 28 16 12 12 19 24 16
28 -4 3 -16 -4 -28 -16z"/>
<path d="M5960 3955 c-8 -9 -8 -15 -2 -15 12 0 26 19 19 26 -2 2 -10 -2 -17
-11z"/>
<path d="M3210 4420 c0 -5 5 -10 11 -10 5 0 7 5 4 10 -3 6 -8 10 -11 10 -2 0
-4 -4 -4 -10z"/>
<path d="M2860 3529 c0 -5 5 -7 10 -4 6 3 10 8 10 11 0 2 -4 4 -10 4 -5 0 -10
-5 -10 -11z"/>
<path d="M2647 1833 c-9 -8 -9 -86 -1 -107 8 -20 67 -22 83 -2 6 7 9 28 7 47
-3 19 -5 42 -5 52 -1 13 -10 17 -39 17 -21 0 -42 -3 -45 -7z"/>
<path d="M2960 1775 c0 -63 1 -65 26 -65 48 0 66 17 63 63 -4 62 -7 67 -50 67
l-39 0 0 -65z"/>
<path d="M3920 1815 c0 -22 4 -25 40 -25 36 0 40 3 40 25 0 23 -4 25 -40 25
-36 0 -40 -2 -40 -25z"/>
<path d="M3920 1740 c0 -28 2 -30 39 -30 28 0 40 5 43 18 8 31 -3 42 -43 42
-37 0 -39 -2 -39 -30z"/>
<path d="M5032 1778 c3 -68 12 -77 64 -64 23 6 25 10 22 64 l-3 57 -43 3 -43
3 3 -63z"/>
<path d="M5670 1810 c0 -28 2 -30 40 -30 38 0 40 2 40 30 0 28 -2 30 -40 30
-38 0 -40 -2 -40 -30z"/>
<path d="M6260 1810 c0 -28 2 -30 40 -30 38 0 40 2 40 30 0 28 -2 30 -40 30
-38 0 -40 -2 -40 -30z"/>
<path d="M6871 1799 c-16 -46 -14 -49 19 -49 17 0 30 2 30 5 0 10 -29 75 -34
75 -2 0 -9 -14 -15 -31z"/>
</g>
</svg>
